<svg width="172" height="121" viewBox="0 0 172 121" fill="none" xmlns="http://www.w3.org/2000/svg">
<path fill-rule="evenodd" clip-rule="evenodd" d="M0 2C0 0.895508 0.895447 0 2 0H170C171.105 0 172 0.895508 172 2V29C172 30.1045 171.105 31 170 31H2C0.895447 31 0 30.1045 0 29V2ZM0 47C0 45.8955 0.895447 45 2 45H170C171.105 45 172 45.8955 172 47V74C172 75.1045 171.105 76 170 76H2C0.895447 76 0 75.1045 0 74V47ZM2 90C0.895447 90 0 90.8955 0 92V119C0 120.104 0.895447 121 2 121H170C171.105 121 172 120.104 172 119V92C172 90.8955 171.105 90 170 90H2Z" fill="#747474"/>
</svg>
