<svg width="108" height="32" viewBox="0 0 108 32" fill="none" xmlns="http://www.w3.org/2000/svg">
<path d="M43.3463 12.3198H46.8276L42.6581 16.9436L47.2369 22.0757H43.8185C43.7376 22.0757 40.1797 17.9062 40.1797 17.9062V22.0712H37.4315V9.47709H40.1797V16.2329L43.3463 12.3198Z" fill="white"/>
<path fill-rule="evenodd" clip-rule="evenodd" d="M47.0031 17.173C47.0031 14.3348 49.3015 12.0319 52.1352 12.0319C54.9689 12.0319 57.2673 14.3348 57.2673 17.173C57.2673 20.0112 54.9689 22.3141 52.1352 22.3141C49.3015 22.3141 47.0031 20.0157 47.0031 17.173ZM49.7018 17.1775C49.7018 18.5943 50.7903 19.7413 52.1352 19.7413C53.4801 19.7413 54.5685 18.5943 54.5685 17.1775C54.5685 15.7607 53.4801 14.6137 52.1352 14.6137C50.7903 14.6137 49.7018 15.7607 49.7018 17.1775Z" fill="white"/>
<path fill-rule="evenodd" clip-rule="evenodd" d="M75.9651 17.173C75.9651 14.3348 78.2635 12.0319 81.0972 12.0319C83.9309 12.0319 86.2293 14.3348 86.2293 17.173C86.2293 20.0112 83.9309 22.3141 81.0972 22.3141C78.2635 22.3141 75.9651 20.0157 75.9651 17.173ZM78.6638 17.1775C78.6638 18.6033 79.7523 19.7593 81.0972 19.7593C82.4421 19.7593 83.5306 18.6033 83.5306 17.1775C83.5306 15.7517 82.4421 14.5957 81.0972 14.5957C79.7523 14.5957 78.6638 15.7517 78.6638 17.1775Z" fill="white"/>
<path fill-rule="evenodd" clip-rule="evenodd" d="M92.8187 12.0319C89.985 12.0319 87.6866 14.3348 87.6866 17.173C87.6866 20.0157 89.985 22.3141 92.8187 22.3141C95.6524 22.3141 97.9508 20.0112 97.9508 17.173C97.9508 14.3348 95.6524 12.0319 92.8187 12.0319ZM92.8187 19.7593C91.4739 19.7593 90.3854 18.6033 90.3854 17.1775C90.3854 15.7517 91.4739 14.5957 92.8187 14.5957C94.1636 14.5957 95.2521 15.7517 95.2521 17.1775C95.2521 18.6033 94.1636 19.7593 92.8187 19.7593Z" fill="white"/>
<path d="M105.521 19.8897C104.491 20.0652 103.906 19.6513 103.663 19.3995C103.411 19.1386 103.227 18.7158 103.227 18.4414V14.6362H105.791V12.3378H103.227V9.68399H100.51V12.3378H98.6525V14.6362H100.51V18.4414C100.51 20.5779 102.246 22.3141 104.383 22.3141C104.383 22.3141 105.377 22.3501 106.074 22.0622L105.521 19.8897Z" fill="white"/>
<path d="M61.7877 17.0156C61.7787 18.2435 61.7877 22.0577 61.7877 22.0577V22.0622H59.0529V12.3422H61.3334L61.6662 13.5387C62.143 12.7965 62.7457 12.3377 63.6408 12.1758C64.6393 11.9959 65.5029 12.1084 66.2766 12.5132C66.7714 12.774 67.1627 13.1834 67.4415 13.7321C67.446 13.7231 67.455 13.7096 67.464 13.7006C67.5764 13.5478 67.689 13.3947 67.8104 13.2508C68.2916 12.6841 68.9213 12.3288 69.6815 12.1848C70.4371 12.0454 71.1613 12.0724 71.8405 12.2748C72.6186 12.5042 73.2168 12.9899 73.6127 13.7141C73.9095 14.2539 74.0804 14.8701 74.1389 15.5897C74.1659 15.9406 74.1794 16.2554 74.1794 16.5613V22.0667H71.4582C71.4582 22.0667 71.4672 17.8207 71.4582 16.4398C71.4537 16.017 71.3547 15.6392 71.1748 15.3154C70.9859 14.9825 70.7205 14.7801 70.3562 14.6902C69.9064 14.5777 69.5286 14.5957 69.1327 14.7486C68.6245 14.942 68.2826 15.3334 68.0847 15.9406C67.9813 16.2554 67.9318 16.6108 67.9318 17.0156V22.0577H65.2735V16.5163C65.2735 16.1835 65.2556 15.7921 65.1026 15.4323C64.8912 14.924 64.5089 14.6587 63.9287 14.6227C63.4924 14.5957 63.1236 14.6587 62.7997 14.8116C62.2824 15.059 62.0396 15.4863 61.8956 16.0935C61.8282 16.3859 61.7877 16.6962 61.7877 17.0156Z" fill="white"/>
<path d="M31.5526 19.7414C33.619 11.1519 28.3309 2.51368 19.7414 0.447365C11.1519 -1.61895 2.51368 3.66912 0.447365 12.2586C-1.61895 20.8481 3.66912 29.4863 12.2586 31.5526C20.8481 33.619 29.4863 28.3309 31.5526 19.7414Z" fill="white"/>
<path d="M2.3064 15.9981C2.3064 8.44947 8.45096 2.30491 15.9996 2.30491C23.5528 2.30491 29.6928 8.44947 29.6928 15.9981C29.6928 19.0365 28.7176 21.9034 26.8756 24.3097L20.0087 17.4428C20.1802 16.9733 20.266 16.4857 20.266 15.9936C20.266 13.6414 18.3518 11.7272 15.9996 11.7272C13.6474 11.7272 11.7332 13.6414 11.7332 15.9936C11.7332 16.4857 11.819 16.9733 11.9905 17.4428L5.12359 24.3097C3.28158 21.9079 2.3064 19.0365 2.3064 15.9981Z" fill="url(#paint0_linear)"/>
<path d="M13.4894 19.2307L15.9996 15.3164L18.5098 19.2261L25.3135 26.0299C22.7717 28.3911 19.4714 29.6913 15.9996 29.6913C12.5278 29.6913 9.22748 28.3911 6.68568 26.0299L13.4894 19.2307Z" fill="url(#paint1_linear)"/>
<defs>
<linearGradient id="paint0_linear" x1="15.9995" y1="2.30695" x2="15.9995" y2="29.6917" gradientUnits="userSpaceOnUse">
<stop stop-color="#8FCE3C"/>
<stop offset="1" stop-color="#64A322"/>
</linearGradient>
<linearGradient id="paint1_linear" x1="15.9995" y1="2.30695" x2="15.9995" y2="29.6917" gradientUnits="userSpaceOnUse">
<stop stop-color="#8FCE3C"/>
<stop offset="1" stop-color="#64A322"/>
</linearGradient>
</defs>
</svg>
